/* XPM */
static char * C:\Users\Somic\Documents\MyDesign\MalwareChain\Wallet\pixmaps\malw16_xpm[] = {
"16 16 42 1",
" 	c None",
".	c #2A4060",
"+	c #344967",
"@	c #7E8D9B",
"#	c #465A74",
"$	c #EFF5EB",
"%	c #67788B",
"&	c #374C69",
"*	c #BEC8C8",
"=	c #B89188",
"-	c #2F4564",
";	c #E3EAE2",
">	c #C5A9A0",
",	c #85362D",
"'	c #A2AEB4",
")	c #95534A",
"!	c #883B32",
"~	c #B79087",
"{	c #D5C6BC",
"]	c #96554B",
"^	c #A16960",
"/	c #893F36",
"(	c #D3C3B9",
"_	c #945148",
":	c #7F2C23",
"<	c #9B5E55",
"[	c #B0837A",
"}	c #823128",
"|	c #873A31",
"1	c #B38A81",
"2	c #B1BCBF",
"3	c #883C33",
"4	c #C1A198",
"5	c #C7ADA3",
"6	c #405570",
"7	c #E1DCD2",
"8	c #83332A",
"9	c #2B4161",
"0	c #5B6D83",
"a	c #9E6259",
"b	c #2F4463",
"c	c #768696",
"     ......     ",
"      ....      ",
"     .+@@+.     ",
"     .#$$#.     ",
"    ..%$$%..    ",
"   .&*$==$*&.   ",
"  .-;$>,,>$;-.  ",
"  .')!~{{~!)'.  ",
"  .;]]^//^]];.  ",
"  .$~(_::_(~$.  ",
"  .$<^[}|1^<$.  ",
"  .23,(45(,32.  ",
"  .67(~88~(76.  ",
"   90;$aa$;09   ",
"    .bc**cb.    ",
"      ....      "};
