/* XPM */
static char * C:\Users\Somic\Documents\MyDesign\MalwareChain\Wallet\pixmaps\malw64_xpm[] = {
"64 64 646 2",
"  	c None",
". 	c #143E61",
"+ 	c #153F63",
"@ 	c #153E61",
"# 	c #153E62",
"$ 	c #164064",
"% 	c #143D61",
"& 	c #153F64",
"* 	c #153E63",
"= 	c #164065",
"- 	c #154065",
"; 	c #16436A",
"> 	c #164268",
", 	c #164269",
"' 	c #18446B",
") 	c #153D61",
"! 	c #143E63",
"~ 	c #154064",
"{ 	c #153F61",
"] 	c #154066",
"^ 	c #164166",
"/ 	c #164267",
"( 	c #17446B",
"_ 	c #153F62",
": 	c #123B5F",
"< 	c #143D60",
"[ 	c #163E61",
"} 	c #184062",
"| 	c #174062",
"1 	c #163F61",
"2 	c #0B365A",
"3 	c #40617B",
"4 	c #D6E1DD",
"5 	c #D1DDDA",
"6 	c #D0DCD9",
"7 	c #DDE3E2",
"8 	c #56748A",
"9 	c #073358",
"0 	c #093459",
"a 	c #496981",
"b 	c #FFFFF8",
"c 	c #F9FFF5",
"d 	c #F8FFF4",
"e 	c #FFFFFE",
"f 	c #648093",
"g 	c #043057",
"h 	c #476780",
"i 	c #F6FDF2",
"j 	c #F0F8EF",
"k 	c #EFF7EE",
"l 	c #FEFFF8",
"m 	c #617D91",
"n 	c #053157",
"o 	c #164167",
"p 	c #154063",
"q 	c #164063",
"r 	c #144064",
"s 	c #17446A",
"t 	c #043056",
"u 	c #3D5F7A",
"v 	c #58768B",
"w 	c #002C53",
"x 	c #174369",
"y 	c #164165",
"z 	c #0B365B",
"A 	c #032E55",
"B 	c #123B5E",
"C 	c #70899A",
"D 	c #F7FDF3",
"E 	c #FBFEF6",
"F 	c #879DAA",
"G 	c #173F62",
"H 	c #032F55",
"I 	c #09345A",
"J 	c #0D375C",
"K 	c #335674",
"L 	c #8DA1AE",
"M 	c #D8E2DF",
"N 	c #F0F7EF",
"O 	c #F8FEF4",
"P 	c #E1E9E4",
"Q 	c #99ACB6",
"R 	c #3E5F7B",
"S 	c #0A355A",
"T 	c #174268",
"U 	c #022E55",
"V 	c #264C6C",
"W 	c #98ABB5",
"X 	c #F0F6EE",
"Y 	c #FFFFFB",
"Z 	c #F7FEF3",
"` 	c #EFF7ED",
" .	c #F0FAF1",
"..	c #F6FFFD",
"+.	c #F7FFFF",
"@.	c #F6FFFE",
"#.	c #F1FCF3",
"$.	c #FFFFFA",
"%.	c #F6FBF2",
"&.	c #A8B8BF",
"*.	c #335774",
"=.	c #022E54",
"-.	c #123C5F",
";.	c #0F395D",
">.	c #678295",
",.	c #E6ECE7",
"'.	c #F3FBF1",
").	c #EEF7EE",
"!.	c #EFF6ED",
"~.	c #F3FEF7",
"{.	c #CFB0A6",
"].	c #BF8B80",
"^.	c #CBA79D",
"/.	c #ECEFE6",
"(.	c #F4FFF9",
"_.	c #F1F9F0",
":.	c #F0F5EE",
"<.	c #7B92A2",
"[.	c #0B355A",
"}.	c #0C365B",
"|.	c #153C60",
"1.	c #9FB1B9",
"2.	c #EEF7ED",
"3.	c #F2FCF5",
"4.	c #EAE9E1",
"5.	c #A55247",
"6.	c #89140A",
"7.	c #8A140B",
"8.	c #89130A",
"9.	c #9D4036",
"0.	c #E3DAD1",
"a.	c #F3FEF8",
"b.	c #F4FCF2",
"c.	c #FFFFFC",
"d.	c #B5C3C7",
"e.	c #1E4566",
"f.	c #083358",
"g.	c #163F62",
"h.	c #17436A",
"i.	c #1B4264",
"j.	c #BECBCE",
"k.	c #EFF8EF",
"l.	c #F5FFFB",
"m.	c #B26F64",
"n.	c #870F06",
"o.	c #92271E",
"p.	c #A65449",
"q.	c #F1FAF3",
"r.	c #F0F9F0",
"s.	c #D3DCDB",
"t.	c #2A4F6E",
"u.	c #063258",
"v.	c #0C375B",
"w.	c #C5D1D2",
"x.	c #F2FCF4",
"y.	c #E9EADF",
"z.	c #973228",
"A.	c #8F2119",
"B.	c #91251C",
"C.	c #902219",
"D.	c #DFD5CA",
"E.	c #F3FFF8",
"F.	c #FFFFF9",
"G.	c #DAE2DF",
"H.	c #284D6D",
"I.	c #083359",
"J.	c #143C5F",
"K.	c #113B5E",
"L.	c #B4C3C7",
"M.	c #F4FFFB",
"N.	c #EEF5EA",
"O.	c #98342A",
"P.	c #91241A",
"Q.	c #E4DED5",
"R.	c #EEF6ED",
"S.	c #CCD7D7",
"T.	c #184063",
"U.	c #0D385C",
"V.	c #153D5F",
"W.	c #899FAB",
"X.	c #F1FBF3",
"Y.	c #ECEEE6",
"Z.	c #BE8A7F",
"`.	c #8C1A11",
" +	c #8E1F16",
".+	c #92281F",
"++	c #8A150C",
"@+	c #B6776C",
"#+	c #E8E5DD",
"$+	c #F2FDF4",
"%+	c #A6B8BE",
"&+	c #063157",
"*+	c #133D60",
"=+	c #153D60",
"-+	c #174368",
";+	c #4A6A82",
">+	c #FAFEF5",
",+	c #F2F9F0",
"'+	c #F6FFFC",
")+	c #F6FFFF",
"!+	c #EFF4EC",
"~+	c #C69A90",
"{+	c #92281E",
"]+	c #881107",
"^+	c #B0685F",
"/+	c #9B3A30",
"(+	c #891209",
"_+	c #8C1911",
":+	c #952E24",
"<+	c #B26C63",
"[+	c #8C1B10",
"}+	c #8D1D13",
"|+	c #BF8980",
"1+	c #EBECE4",
"2+	c #F1FBF2",
"3+	c #F4FFFA",
"4+	c #F0F8EE",
"5+	c #658194",
"6+	c #113A5E",
"7+	c #CAD7D5",
"8+	c #FCFFF7",
"9+	c #F5FFFC",
"0+	c #DFD3C9",
"a+	c #BA8075",
"b+	c #B06B60",
"c+	c #C39489",
"d+	c #F3FDF6",
"e+	c #CCA79D",
"f+	c #973329",
"g+	c #840900",
"h+	c #A95950",
"i+	c #DDCCC3",
"j+	c #F8FFFF",
"k+	c #E4DDD4",
"l+	c #B97E74",
"m+	c #AA5C52",
"n+	c #B5766B",
"o+	c #DECFC6",
"p+	c #F9FFFF",
"q+	c #E2D9D0",
"r+	c #B06A60",
"s+	c #870E04",
"t+	c #92261C",
"u+	c #C4968D",
"v+	c #EFF6EF",
"w+	c #F0F8F0",
"x+	c #C89F94",
"y+	c #B16C61",
"z+	c #B7796F",
"A+	c #D9C6BC",
"B+	c #F7FDF4",
"C+	c #E1EAE4",
"D+	c #214768",
"E+	c #0E395D",
"F+	c #6B8698",
"G+	c #D2B6AC",
"H+	c #8F2117",
"I+	c #8B170E",
"J+	c #A14A3F",
"K+	c #A44E45",
"L+	c #840800",
"M+	c #A34C43",
"N+	c #D7C1B8",
"O+	c #F3FFF6",
"P+	c #F4FFF8",
"Q+	c #DDCEC6",
"R+	c #AA5D53",
"S+	c #850A00",
"T+	c #9E4238",
"U+	c #A6544A",
"V+	c #89140B",
"W+	c #8C190F",
"X+	c #C89E94",
"Y+	c #899EAB",
"Z+	c #133C60",
"`+	c #CEDBD8",
" @	c #EAECE3",
".@	c #98362B",
"+@	c #8D1B13",
"@@	c #942B21",
"#@	c #D1B5AA",
"$@	c #F5FFFD",
"%@	c #F1FDF4",
"&@	c #D9C4BB",
"*@	c #9A3A2F",
"=@	c #8A150D",
"-@	c #8F2017",
";@	c #90241A",
">@	c #E2DAD0",
",@	c #F3FDF7",
"'@	c #F5FCF2",
")@	c #E4EDE6",
"!@	c #244A6A",
"~@	c #063158",
"{@	c #557389",
"]@	c #FDFFF7",
"^@	c #D5BEB3",
"/@	c #8C1A10",
"(@	c #8E1E15",
"_@	c #A0463C",
":@	c #F3FFF7",
"<@	c #EEF5EB",
"[@	c #C3958A",
"}@	c #E8E7DD",
"|@	c #AB5E54",
"1@	c #C9A398",
"2@	c #728C9C",
"3@	c #153E60",
"4@	c #A2B4BB",
"5@	c #D7C2B7",
"6@	c #8C1B11",
"7@	c #92261D",
"8@	c #9C3E34",
"9@	c #EDF4EA",
"0@	c #F1FAF1",
"a@	c #EFF8EE",
"b@	c #D8C2B9",
"c@	c #A44E44",
"d@	c #870D05",
"e@	c #D2B4AB",
"f@	c #F2FEF5",
"g@	c #F3FEF6",
"h@	c #A6554B",
"i@	c #8A150B",
"j@	c #CBA69C",
"k@	c #BECCCD",
"l@	c #1D4465",
"m@	c #DAE4E0",
"n@	c #F6FDF3",
"o@	c #EDF0E8",
"p@	c #9C3D32",
"q@	c #8B1810",
"r@	c #870E06",
"s@	c #B77A6F",
"t@	c #E9E8E0",
"u@	c #CEABA2",
"v@	c #A9594F",
"w@	c #8D1B12",
"x@	c #93281F",
"y@	c #8E1D15",
"z@	c #C9A197",
"A@	c #E6E2D9",
"B@	c #F5FFFA",
"C@	c #C4978C",
"D@	c #870E05",
"E@	c #8E1D14",
"F@	c #93291F",
"G@	c #E5E0D7",
"H@	c #F2FDF5",
"I@	c #F2FBF0",
"J@	c #ECF4EC",
"K@	c #305472",
"L@	c #43647E",
"M@	c #F6FCF2",
"N@	c #D8C3B9",
"O@	c #902118",
"P@	c #881108",
"Q@	c #A55248",
"R@	c #D6BDB4",
"S@	c #AB5F55",
"T@	c #97332A",
"U@	c #91261D",
"V@	c #92261E",
"W@	c #8D1C13",
"X@	c #8A160D",
"Y@	c #A8584E",
"Z@	c #CEADA4",
"`@	c #F0F6F0",
" #	c #AF675D",
".#	c #881309",
"+#	c #90231A",
"@#	c #902218",
"##	c #CEADA3",
"$#	c #5F7B90",
"%#	c #6C8698",
"&#	c #E6E4D9",
"*#	c #9B3C32",
"=#	c #9A3A31",
"-#	c #CEABA3",
";#	c #B16B60",
">#	c #860D04",
",#	c #A34D42",
"'#	c #F3FFF5",
")#	c #D4B6AF",
"!#	c #A24A40",
"~#	c #DED1C7",
"{#	c #032F56",
"]#	c #8CA2AD",
"^#	c #A24C42",
"/#	c #AC6159",
"(#	c #FCFFFF",
"_#	c #F1FAF2",
":#	c #8C1B12",
"<#	c #A95A50",
"[#	c #FEFFFF",
"}#	c #BB8279",
"|#	c #973227",
"1#	c #F1FCF2",
"2#	c #A9BAC0",
"3#	c #073258",
"4#	c #143E60",
"5#	c #143F60",
"6#	c #A1B4BB",
"7#	c #F2FFF5",
"8#	c #A1493F",
"9#	c #AA5C54",
"0#	c #8B180F",
"a#	c #B87B72",
"b#	c #963126",
"c#	c #EDF3E9",
"d#	c #FBFFF6",
"e#	c #BDCCCD",
"f#	c #143F61",
"g#	c #AEBFC3",
"h#	c #FDFFF8",
"i#	c #D0B1A7",
"j#	c #C3958B",
"k#	c #C8D4D4",
"l#	c #093359",
"m#	c #AFC0C4",
"n#	c #E6E3D9",
"o#	c #952D23",
"p#	c #8F1F16",
"q#	c #DCCDC3",
"r#	c #C9D5D4",
"s#	c #133B5F",
"t#	c #A5B8BE",
"u#	c #AB5D56",
"v#	c #B16D62",
"w#	c #A65348",
"x#	c #F2FBF5",
"y#	c #B97D74",
"z#	c #FAFFF6",
"A#	c #C0CFCF",
"B#	c #0F385D",
"C#	c #042F56",
"D#	c #93A7B1",
"E#	c #A8584F",
"F#	c #F4FEF9",
"G#	c #DFD4CA",
"H#	c #8F2218",
"I#	c #90221A",
"J#	c #D4BCB1",
"K#	c #FBFFFF",
"L#	c #B6776D",
"M#	c #AFBFC4",
"N#	c #758E9F",
"O#	c #F0FAF2",
"P#	c #F2FBF4",
"Q#	c #A55147",
"R#	c #D6BEB5",
"S#	c #B7796E",
"T#	c #DED0C6",
"U#	c #AA5B51",
"V#	c #942B22",
"W#	c #BB8277",
"X#	c #EFF4ED",
"Y#	c #4E6E85",
"Z#	c #FAFFF5",
"`#	c #BB8379",
" $	c #91241B",
".$	c #8B170F",
"+$	c #8D1C12",
"@$	c #D7C0B6",
"#$	c #F0F9F1",
"$$	c #B87D73",
"%$	c #90241B",
"&$	c #AE655B",
"*$	c #F1F9F2",
"=$	c #F3FDF8",
"-$	c #E1D5CC",
";$	c #860D05",
">$	c #AF685D",
",$	c #F3FCF6",
"'$	c #F0F9EF",
")$	c #264B6B",
"!$	c #E2DBD1",
"~$	c #91251B",
"{$	c #A7564B",
"]$	c #C69A91",
"^$	c #8F2118",
"/$	c #8E1F15",
"($	c #BD867C",
"_$	c #B37166",
":$	c #D8C4B9",
"<$	c #F1F9EF",
"[$	c #F3FAF0",
"}$	c #3C5E7A",
"|$	c #D3B9AE",
"1$	c #9B3B32",
"2$	c #ECF1E8",
"3$	c #E2DAD1",
"4$	c #B47369",
"5$	c #AE665B",
"6$	c #DDCDC4",
"7$	c #C79E93",
"8$	c #F9FEF5",
"9$	c #CDD9D7",
"0$	c #133C5F",
"a$	c #6A8597",
"b$	c #DDCFC4",
"c$	c #A0473C",
"d$	c #EAEDE3",
"e$	c #AB5F54",
"f$	c #8A160C",
"g$	c #889EAA",
"h$	c #0F395E",
"i$	c #AB6156",
"j$	c #91241C",
"k$	c #8C1910",
"l$	c #A8584D",
"m$	c #DBC9C1",
"n$	c #F2FEF6",
"o$	c #E1D6CE",
"p$	c #881209",
"q$	c #A0483D",
"r$	c #EEF3EC",
"s$	c #F0FBF2",
"t$	c #F2FAF0",
"u$	c #F1F8EF",
"v$	c #365976",
"w$	c #F2FCF6",
"x$	c #EAEAE2",
"y$	c #AD6359",
"z$	c #942C22",
"A$	c #C3948A",
"B$	c #CCA69D",
"C$	c #860C02",
"D$	c #AE645A",
"E$	c #E0D4CB",
"F$	c #E9EAE0",
"G$	c #DDCFC5",
"H$	c #E7E4DA",
"I$	c #E5DFD7",
"J$	c #B5756B",
"K$	c #891208",
"L$	c #C5988F",
"M$	c #CAA49A",
"N$	c #F4FEF8",
"O$	c #053056",
"P$	c #0E385C",
"Q$	c #234869",
"R$	c #E2EBE5",
"S$	c #D7C2B8",
"T$	c #E6E2D8",
"U$	c #ECEFE7",
"V$	c #C18F86",
"W$	c #B4746A",
"X$	c #E5DBD4",
"Y$	c #C4978D",
"Z$	c #942D23",
"`$	c #BC847A",
" %	c #E6DDD6",
".%	c #BD867D",
"+%	c #8B170D",
"@%	c #BA7F75",
"#%	c #E8E6DE",
"$%	c #E9E9DF",
"%%	c #F3FAF1",
"&%	c #F3F8F0",
"*%	c #385A77",
"=%	c #163E60",
"-%	c #6D8799",
";%	c #F1FCF4",
">%	c #E9E8DF",
",%	c #BB8178",
"'%	c #91261C",
")%	c #902119",
"!%	c #B37167",
"~%	c #E4DDD5",
"{%	c #8BA0AC",
"]%	c #B2C2C5",
"^%	c #E0D5CA",
"/%	c #D6BEB4",
"(%	c #CCD7D6",
"_%	c #143C60",
":%	c #103A5E",
"<%	c #153E5F",
"[%	c #DAE3E0",
"}%	c #963026",
"|%	c #EBF1EB",
"1%	c #345775",
"2%	c #375A76",
"3%	c #E8EFE9",
"4%	c #EEF4EB",
"5%	c #8D1C14",
"6%	c #E7E5DB",
"7%	c #F6FAF2",
"8%	c #4F6E85",
"9%	c #3E5F7A",
"0%	c #E6EDE8",
"a%	c #CAA59A",
"b%	c #8D1D14",
"c%	c #547389",
"d%	c #012E55",
"e%	c #325573",
"f%	c #D0DADA",
"g%	c #CAA399",
"h%	c #9C3D33",
"i%	c #99372D",
"j%	c #C19085",
"k%	c #E1E8E4",
"l%	c #45667F",
"m%	c #194163",
"n%	c #9FB1BA",
"o%	c #E4DED4",
"p%	c #EBEFE5",
"q%	c #F9FFF4",
"r%	c #B3C2C6",
"s%	c #264C6B",
"t%	c #557289",
"u%	c #CDD7D7",
"v%	c #FCFFF6",
"w%	c #F2FFF6",
"x%	c #D9E2DF",
"y%	c #668195",
"z%	c #053057",
"A%	c #658094",
"B%	c #C4D0D1",
"C%	c #F8FDF3",
"D%	c #F4FBF1",
"E%	c #FBFFF5",
"F%	c #CED9D8",
"G%	c #748C9E",
"H%	c #163E62",
"I%	c #43637E",
"J%	c #889DAA",
"K%	c #C0CDCF",
"L%	c #E3EBE6",
"M%	c #F5FBF1",
"N%	c #E6EEE8",
"O%	c #C6D2D3",
"P%	c #90A4B0",
"Q%	c #4C6B84",
"R%	c #163E64",
"S%	c #41627D",
"T%	c #59778C",
"U%	c #688396",
"V%	c #6E899A",
"W%	c #6A8497",
"X%	c #5C798E",
"Y%	c #10395D",
"Z%	c #0E385D",
"`%	c #163F64",
" &	c #143E62",
".&	c #144062",
"                                                                                                                                ",
"                                          . + @ @ @ @ @ @ @ @ @ @ @ @ @ @ @ @ @ @ @ # $                                         ",
"                                          % & # # # # # # # # # # # # # # # # # # # * =                                         ",
"                                          - ; > > > > > > > > > > > > > > > > > > > , '                                         ",
"                                          ) ! % % % % % % % % % % % % % % % % % % % % ~                                         ",
"                                                                                                                                ",
"                                              # { @ @ @ @ @ @ @ @ @ @ @ @ @ @ @ @ ]                                             ",
"                                              ^ / ^ ^ ^ ^ ^ ^ ^ ^ ^ ^ ^ ^ ^ ^ ^ ^ (                                             ",
"                                              @ _ @ % : : : : : : : : : : : < @ @ ^                                             ",
"                                              @ _ @ [ } } | | | | | | | | } 1 @ @ ^                                             ",
"                                              @ _ 2 3 4 5 6 6 6 6 6 6 6 6 7 8 9 @ ^                                             ",
"                                              @ _ 0 a b c d d d d d d d d e f g @ ^                                             ",
"                                              @ _ 0 h i j k k k k k k k k l m n @ ^                                             ",
"                                              @ _ 0 h i j k k k k k k k k l m n @ ^                                             ",
"                                              @ _ 0 h i j k k k k k k k k l m n @ ^                                             ",
"                                              _ _ 0 h i j k k k k k k k k l m n @ o                                             ",
"                                            p + @ 0 h i j k k k k k k k k l m n @ + q r                                         ",
"                                        ~ s = @ @ t u i j k k k k k k k k b v w @ @ $ s ~                                       ",
"                                    & x y @ @ z A B C D j k k k k k k k k E F G H I @ @ $ s ~                                   ",
"                                  $ x @ 1 J H K L M D N k k k k k k k k k k O P Q R n S [ @ T -                                 ",
"                                $ ^ @ < U V W X Y Z j k k `  ...+.@.#.` k k k i $.%.&.*.=.-.[ $ T                               ",
"                              / $ [ ;.n >.,.Y '.).k k k !.~.k {.].^./.(.!.k k k k _.$.:.<.[.}.1 + s |.                          ",
"                            / $ 1 z : 1.$.Z 2.k k k k k 3.4.5.6.7.8.9.0.a.k k k k k ).b.c.d.e.f.g._ h.                          ",
"                          & = 1 S i.j.c.j k k k k k k k.l.m.n.o.o.o.8.p.q.r.k k k k k k k Y s.t.u.1 + /                         ",
"                        @ / [ v.} w.Y k k k k k k k k x.y.z.A.o.o.o.B.C.D.E.k k k k k k k 2.F.G.H.I.1 y _                       ",
"                      J.s @ K.}.L.Y ).k k k k k k k ` M.N.O.C.o.o.o.B.P.Q.+.k k k k k k k k R.F.S.T.U.@ x V.                    ",
"                      y _ @ U W.c.k k k k k k k ` X.+.Y.Z.`. +.+o..+C.++@+#++.$+` k k k k k k 2.Y %+&+*+@ x                     ",
"                    =+-+[ &+;+>+,+` E.+.'+)+#.r.+.!+~+{+]+^+/+(+_+8.:+<+[+}+|+1++.2+ .@...@.3+k 4+$.5+A 1 ^ <                   ",
"                    ^ @ : 6+7+8+2.9+0+a+b+c+/.d+e+f+g+h+i+j+k+l+m+n+o+p+q+r+s+t+u+v+w+x+y+z+A+l.k.B+C+D+E+@ h.                  ",
"                  < x @ H F+$.k 9+G+H+8.I+(+J+K+L+M+N+l.l.k O+@.(.@.P+k (.@.Q+R+S+T+U+7.I+V+W+X+9+2.Y Y+U @ / =+                ",
"                  @ + -.Z+`+>+#. @.@+@.+o..+_+@@#@P+$@k.k k !.2+)+%@!.k k k l.9+&@*@=@o.o.o.-@;@>@,@'@)@!@;.@ y                 ",
"                  x @ ~@{@]@4+l.^@/@o.o.o.o.(@_@:@x.k k k k.@.<@[@}@+.r.k k k r.j+|@`.o.o.o..+++1@)+k $.2@H @ h.=+              ",
"                3@> @ t 4@F.k l.5@6@7@o.o.o. +8@9@0@a@$++.(.b@c@d@9.e@3.+.f@k.j g@h@`.o.o.o.o.i@j@)+k 8+k@}.< ^ <               ",
"                < $ K.l@m@n@k 2+o@p@q@.+o.o.r@s@9+(.'+t@u@v@}+w@x@y@W+c@z@A@B@l...C@D@7@o..+E@F@G@H@k I@J@K@J + )               ",
"                + # I L@M@j k k l.N@@@-@O@P@Q@1+..R@S@T@I+`.U@o.o.o.V@W@X@:+Y@Z@(.`@ #.# ++#@###9+k k k l $#n @ /               ",
"                > @ t %#F.k k k ` 9+&#*#=#-#!.~...;#L+C.o.o.o.o.o.o.o.o.o.+#>#,#'#H@x.)#!#@@~#@.k k k k F.W.H @ x               ",
"                x @ {#]#$.k k k k 4+..^#/#(#_#` ..n+I+o.o.o.o.o.o.o.o.o.o.o.:#<#O+a@r.[#}#|#1#_#k k k k l 2#3#@ x 4#            ",
"              5#x @ &+6#b k k k k j 7#8#9#l.k k +.].++o.o.o.o.o.o.o.o.o.o.o.0#m.'+k k +.a#b#c#_#k k k k d#e#J < T 4#            ",
"              f#x % I.g#h#k k k k j 7#8#9#l.k k ..i#0#o.o.o.o.o.o.o.o.o.o.o.++j#+.k k +.a#b#c#_#k k k k c k#: Z+/ =+            ",
"              4#x % l#m#h#k k k k j 7#8#9#l.k k H@n#o#+#o.o.o.o.o.o.o.o.o.U@p#q#(.k k +.a#b#c#_#k k k k c r#s#Z+/ <             ",
"              { x @ &+t#b k k k k j 7#8#u#..k k a@..v#++.+o.o.o.o.o.o.o.o._+w#x#r.k k j+y#b#c#_#k k k k z#A#B#*+> .             ",
"                x @ C#D#F.k k k ` _#j+^#E#+.l.k k F#G#H#I#o.o.o.o.o.o.o.B.I+J#$@k ` (.K#L#|#:@~.!.k k k h#M#I.) -+)             ",
"                -+@ {#N#F.k k k O#P#[@@@o.Q#R#9+k k +.[@P@B.o.o.o.o.o.o.P@S#..k.` l.T#U#V#B.W#X#P#k k k F.D#{#@ x =+            ",
"                = # 9 Y#Z#j k k l.`#># $7@.$+$@$l.k #$B@$$(+A..+o..+%$P@&$*$X.k =$-$F@++B.U@;$>$,$'$k k F.F+t @ T               ",
"                3@q ;.)$)@b.k g@!$~$+#o.o..+I+{$,$j ` _#l.]$7@++^$I+/$($3.H@!.k .._$8..+o.o.U@W+:$3+k <$[$}$[._ +               ",
"                % / . l#L.]@k 9+|$W+o.o.o.o.-@1$2$2+k k r.+.3$4$f+5$6$)+2+` k r.7#Q#W@o.o.o.o.++7$)+k 8$9$Z+0$= <               ",
"                  s @ {#a$$.k (.b$(@B.o.o.o.(@c$O+@.k.k k ` E.l.d$P+3+k k k k 3+p+e$_+o.o.o.o.f$#@$@k $.g$U @ x <               ",
"                  q _ h$D+C+M@'$,$i$r@j$V@C.k$0#l$m$..3+k k k $+..n$k k k :@+.o$ #w@k$-@7@B.p$q$r$s$t$u$v$z @ >                 ",
"                  < / @ U g$Y R.w$x$y$@#w@z$A$B$@@C$D$E$+.(.9+F$G$H$l.P++.I$J$K$/$L$M$O.+$p#w#k+N$R.$.%+O$@ = =+                ",
"                    x @ P$Q$R$B+R.f@:@G#S$T$$@+.U$V$H+]+W$X$Y$z.H+Z$`$ %.%W++%@%#%+.@.$%:$b$1#E.R.%%&%*%S @ s =%                ",
"                    ) ^ [ U -%Y a@k j E.l.f@k ` ;%j+>%,%W@'%(@-@U@)%+${+I+!%~%+.n$` k ;%l.(.r.k ).c.{%U @ $ #                   ",
"                      x @ Z+l#]%Y 2.k k k k k k k ` f@p+^%o#^$o.o.o. $O@/%p+E.k k k k k k k k R.l (%_%:%@ s                     ",
"                      <%x @ z D+[%]@R.k k k k k k k k f@F$}%I#o.o.o.B.@#G#3+k k k k k k k k R.8$|%1%9 [ / @                     ",
"                        & $ 1 &+2%3%d#R.k k k k k k k O#4%9.5%o.o.o.^$o#6%$+k k k k k k k R.O 7%8%H 1 + y                       ",
"                          x _ 1 C#9%0%l 2.k k k k k k k ..a%P@b% $ +>#Z.9+k k k k k k k R.d#&%c%d%@ @ (                         ",
"                          _%s # g.t e%f%c.<$k k k k k k k.(.g%h%F@i%j%P##$k k k k k k a@$.k%l%U @ @ ( 3@                        ",
"                            @ ( # g.3#m%n%l d#k k k k k k k...c#o%p%.. .` k k k k k q%$.r%s%t 1 @ s .                           ",
"                              @ s + 1 P$t t%u%$.v%<$k k k k k 2+w%2+k k k k k j Z#Y x%y%0 z 1 # s +                             ",
"                                  / ^ @ % z%: A%B%C%$.d#b.<$k k k k k j D%Z#$.E%F%G%i.H Z+@ $ x H%                              ",
"                                    $ s _ [ : {#P$I%J%K%L%M%]@b F.b ]@i N%O%P%Q%0$U :%[ # x ~                                   ",
"                                      R%y -+_ @ *+0 A J )$S%T%U%V%W%X%l%t.Y%H 9 -.@ @ / / +                                     ",
"                                          $ = x $ @ @ < ;.S &+t t t &+0 Z%Z+@ @ q x / `%                                        ",
"                                              + _ / x / $ _ # @ @ @ # _ $ ^ x T _ &                                             ",
"                                                    _ #  &@ 4#< 3@% . ) @  &.&                                                  "};
