/* XPM */
static char * C:\Users\Somic\Documents\MyDesign\MalwareChain\Wallet\pixmaps\malw32_xpm[] = {
"32 32 54 1",
" 	c None",
".	c #2A4060",
"+	c #BEC8C8",
"@	c #EFF5EB",
"#	c #2F4463",
"$	c #768696",
"%	c #E3EAE2",
"&	c #8694A1",
"*	c #DACFC5",
"=	c #883B32",
"-	c #CAD3D1",
";	c #8B4138",
">	c #7F2C23",
",	c #95A3AC",
"'	c #D3C3B9",
")	c #9B5E54",
"!	c #86382F",
"~	c #374C69",
"{	c #B2887E",
"]	c #995B51",
"^	c #BE9D93",
"/	c #CCB6AC",
"(	c #A2AEB4",
"_	c #97584E",
":	c #83332A",
"<	c #8D453C",
"[	c #934F46",
"}	c #E8E8DE",
"|	c #A26A61",
"1	c #945148",
"2	c #914C43",
"3	c #8C433A",
"4	c #3E526E",
"5	c #E1DCD2",
"6	c #8D443B",
"7	c #883C33",
"8	c #873A31",
"9	c #465A74",
"0	c #A9776E",
"a	c #84352C",
"b	c #85362D",
"c	c #B79087",
"d	c #B0837A",
"e	c #C5A9A0",
"f	c #84342B",
"g	c #67788B",
"h	c #D6DEDA",
"i	c #86372E",
"j	c #425671",
"k	c #6A7B8D",
"l	c #C1A198",
"m	c #4E617A",
"n	c #495C76",
"o	c #7E8D9B",
"          ............          ",
"          ............          ",
"           ..........           ",
"           ..........           ",
"           ..........           ",
"           ..+@@@@+..           ",
"           ..+@@@@+..           ",
"           ..+@@@@+..           ",
"         ....+@@@@+....         ",
"        ...#$%@@@@%$#...        ",
"       ...&%@@@**@@@%&...       ",
"      ..#+@@@@*==*@@@@+#..      ",
"     ...-@@@@@;>>;@@@@@-...     ",
"     ..,@@@@')!==!)'@@@@,..     ",
"    ..~@*{])!^@//@^!)]{*@~..    ",
"    ..(@_:<[}@@''@@}[<:_@(..    ",
"    ..%@|12)@/|::|/@)31|@%..    ",
"    .4@@56)*)78>>87)*)65@@4.    ",
"   ..9@@@)'@0:>>>>:0@')@@@9..   ",
"   ..9@@@)'@^3>>>>3^@')@@@9..   ",
"   ..9@@@1^@}a>>>>b}@^1@@@9..   ",
"    .#@@c==d@ef::fe@d==c@@#.    ",
"    ..-@_>>_@@']]*@@_>>_@-..    ",
"    ..g@d:3!c}@@@@}c!3:d@g..    ",
"     ..h@'e*0!0ii0!0*e'@h..     ",
"     ..j@@@@@*i;;i*@@@@@j..     ",
"      ..k@@@@@l88l@@@@@k..      ",
"       ..m%@@@@ll@@@@%m..       ",
"        ..#&%@@@@@@%&#..        ",
"         ....noooon....         ",
"          ............          ",
"             ......             "};
